# AST/ASF file generated using VICON BodyLanguage
# -----------------------------------------------
:version 1.10
:name VICON
:units
  mass 1.0
  length 0.45
  angle deg
:documentation
   .ast/.asf automatically generated from VICON data using
   VICON BodyBuilder and BodyLanguage model FoxedUp or BRILLIANT.MOD
:root
   order TX TY TZ RX RY RZ
   axis XYZ
   position 0 0 0  
   orientation 0 0 0 
:bonedata
  begin
     id 1 
     name lhipjoint
     direction 0.573633 -0.743009 0.344793 
     length 2.46257 
     axis 0 0 0  XYZ
  end
  begin
     id 2 
     name lfemur
     direction 0.34202 -0.939693 0  
     length 7.3842  
     axis 0 0 20  XYZ
    dof rx ry rz
    limits (-160.0 20.0)
           (-70.0 70.0)
           (-60.0 70.0)
  end
  begin
     id 3 
     name ltibia
     direction 0.34202 -0.939693 0   
     length 7.50407   
     axis 0 0 20   XYZ
    dof rx
    limits (-10.0 170.0)
  end
  begin
     id 4 
     name lfoot
     direction 0.110749 -0.304281 0.946123   
     length 1.95925   
     axis -90 7.62852e-016 20   XYZ
    dof rx rz
    limits (-45.0 90.0)
           (-70.0 20.0)
  end
  begin
     id 5 
     name ltoes
     direction 1.53554e-011 -4.21843e-011 1   
     length 0.978318   
     axis -90 7.62852e-016 20   XYZ
    dof rx
    limits (-90.0 20.0)
  end
  begin
     id 6 
     name rhipjoint
     direction -0.488109 -0.791693 0.367385   
     length 2.31113  
     axis 0 0 0  XYZ 
  end
  begin
     id 7 
     name rfemur
     direction -0.34202 -0.939693 0   
     length 7.40965   
     axis 0 0 -20   XYZ
    dof rx ry rz
    limits (-160.0 20.0)
           (-70.0 70.0)
           (-70.0 60.0)
  end
  begin
     id 8 
     name rtibia
     direction -0.34202 -0.939693 0   
     length 7.55548   
     axis 0 0 -20   XYZ
    dof rx
    limits (-10.0 170.0)
 end
 begin
     id 9 
     name rfoot
     direction -0.127594 -0.350561 0.927808   
     length 2.07199  
     axis -90 -7.62852e-016 -20   XYZ
    dof rx rz
    limits (-45.0 90.0)
           (-20.0 70.0)
  end
  begin
     id 10 
     name rtoes
     direction -1.53542e-011 -4.21909e-011 1   
     length 1.02667   
     axis -90 -7.62852e-016 -20   XYZ
    dof rx
    limits (-90.0 20.0)
  end
  begin
     id 11 
     name lowerback
     direction -0.0103342 0.997298 -0.0727278   
     length 2.02836   
     axis 0 0 0   XYZ
    dof rx ry rz
    limits (-20.0 45.0)
           (-30.0 30.0)
           (-30.0 30.0)
  end
  begin
     id 12 
     name upperback
     direction 0.0171146 0.999786 -0.011606   
     length 2.03179   
     axis 0 0 0   XYZ
    dof rx ry rz
    limits (-20.0 45.0)
           (-30.0 30.0)
           (-30.0 30.0)
  end
  begin
     id 13 
     name thorax
     direction 0.0216927 0.999513 0.0224343   
     length 2.03882   
     axis 0 0 0   XYZ
    dof rx ry rz
    limits (-20.0 45.0)
           (-30.0 30.0)
           (-30.0 30.0)
  end
  begin
     id 14 
     name lowerneck
     direction 0.000989287 0.993907 0.110221   
     length 1.75428   
     axis 0 0 0   XYZ
    dof rx ry rz
    limits (-20.0 45.0)
           (-30.0 30.0)
           (-30.0 30.0)
  end
  begin
     id 15 
     name upperneck
     direction -0.0172474 0.994813 -0.100253   
     length 1.77058   
     axis 0 0 0   XYZ
    dof rx ry rz
    limits (-20.0 45.0)
           (-30.0 30.0)
           (-30.0 30.0)
  end
  begin
     id 16
     name head
     direction -0.00486455 0.99894 -0.0457663  
     length 1.77427  
     axis 0 0 0   XYZ
    dof rx ry rz
    limits (-20.0 45.0)
           (-30.0 30.0)
           (-30.0 30.0)
  end
  begin
     id 17 
     name lclavicle
     direction 0.927314 0.333734 -0.169441  
     length 3.97584  
     axis 0 0 0   XYZ
    dof ry rz
    limits (-20.0 10.0)
           (0.0 20.0)
  end
  begin
     id 18 
     name lhumerus
     direction 1 -4.48965e-011 -3.25313e-028   
     length 4.76468   
     axis 180 -30 -90   XYZ
    dof rx ry rz
    limits (-60.0 90.0)
           (-90.0 90.0)
           (-90.0 90.0)
  end
  begin
     id 19
     name lradius
     direction 1 -4.48969e-011 -2.8465e-028   
     length 3.52712   
     axis -180 -30 -90   XYZ
    dof rx
    limits (-10.0 170.0)
  end
  begin
     id 20
     name lwrist
     direction 1 -4.4896e-011 -7.78665e-028   
     length 1.76356   
     axis 1.91374e-015 90 90   XYZ
    dof ry
    limits (-180.0 0.0)
 end
  begin
     id 21 
     name lhand
     direction 1 -4.48959e-011 -1.55733e-027   
     length 0.859564   
     axis 9.9371e-016 90 90   XYZ
    dof rx rz
    limits (-90.0 90.0)
           (-45.0 45.0)
  end
  begin
     id 22 
     name lfingers
     direction 1 -4.48965e-011 -3.11466e-027   
     length 0.693002   
     axis 1.98742e-015 90 90   XYZ
    dof rx
    limits (0.0 90.0)
  end
  begin
     id 23
     name lthumb
     direction 0.707107 -6.34948e-011 0.707107   
     length 0.995017   
     axis -90 45 2.85299e-015   XYZ
    dof rx rz
    limits (-45.0 45.0)
           (-45.0 45.0)
  end
  begin
     id 24 
     name rclavicle
     direction -0.899388 0.348209 -0.264294   
     length 3.68366  
     axis 0 0 0   XYZ 
    dof ry rz
    limits (-10.0 20.0)
           (-20.0 0.0)
  end
  begin
     id 25 
     name rhumerus
     direction -1 -4.48965e-011 -3.01536e-027  
     length 4.90577   
     axis 180 30 90   XYZ
    dof rx ry rz
    limits (-90.0 60.0)
           (-90.0 90.0)
           (-90.0 90.0)
  end
  begin
     id 26 
     name rradius
     direction -1 -4.48966e-011 3.93291e-027   
     length 3.42692   
     axis -180 30 90   XYZ
    dof rx
    limits (-10.0 170.0)
  end
  begin
     id 27 
     name rwrist
     direction -1 -4.48969e-011 -7.78665e-028   
     length 1.71346   
     axis 1.91374e-015 -90 -90   XYZ
    dof ry
    limits (-180.0 0.0)
  end
  begin
     id 28
     name rhand
     direction -1 -4.48967e-011 -1.55733e-027   
     length 0.740957   
     axis 9.9371e-016 -90 -90   XYZ
    dof rx rz
    limits (-90.0 90.0)
           (-45.0 45.0)
  end
  begin
     id 29
     name rfingers
     direction -1 -4.48949e-011 -3.11466e-027   
     length 0.597378   
     axis 1.98742e-015 -90 -90   XYZ
    dof rx
    limits (0.0 90.0)
  end
  begin
     id 30
     name rthumb
     direction -0.707107 -6.34931e-011 0.707107   
     length 0.857719   
     axis -90 -45 -2.85299e-015   XYZ
    dof rx rz
    limits (-45.0 45.0)
           (-45.0 45.0)
  end
:hierarchy
  begin
    root lhipjoint rhipjoint lowerback
    lhipjoint lfemur
    lfemur ltibia
    ltibia lfoot
    lfoot ltoes
    rhipjoint rfemur
    rfemur rtibia
    rtibia rfoot
    rfoot rtoes
    lowerback upperback
    upperback thorax
    thorax lowerneck lclavicle rclavicle
    lowerneck upperneck
    upperneck head
    lclavicle lhumerus
    lhumerus lradius
    lradius lwrist
    lwrist lhand lthumb
    lhand lfingers
    rclavicle rhumerus
    rhumerus rradius
    rradius rwrist
    rwrist rhand rthumb
    rhand rfingers
  end

#!OML:ASF E:\I on waltz\AllaLogoMonkeySwing\Project 1\Capture day 1\Session 1\Subject1.ASF
:FULLY-SPECIFIED
:DEGREES
112
root 0.725822 21.0106 -22.0466 6.17566 7.79085 8.87739
lowerback 8.90537 -0.931019 -7.15228
upperback -1.18226 -1.99961 0.540518
thorax -5.99623 -0.730758 4.87466
lowerneck -14.6692 1.26063 -3.7834
upperneck 16.6178 1.90174 3.61063
head 7.4502 1.01496 2.00952
rclavicle 1.16289e-014 2.70347e-014
rhumerus -60.028 -0.508622 -68.9163
rradius 42.4527
rwrist -6.91664
rhand -11.7191 -36.4492
rfingers 7.12502
rthumb 14.3277 -65.9348
lclavicle 1.16289e-014 2.70347e-014
lhumerus -69.3966 10.0763 71.6391
lradius 58.2895
lwrist 11.2173
lhand -19.0859 -17.6952
lfingers 7.12502
lthumb 7.22223 12.1616
rfemur -14.8296 -9.48086 11.2681
rtibia 16.7408
rfoot 12.0855 -8.53727
rtoes 16.7727
lfemur 3.40366 1.18621 -16.2542
ltibia 54.1005
lfoot 15.1175 -8.78495
ltoes -28.1062
113
root 0.709118 20.8138 -21.7316 5.70454 7.83308 9.88147
lowerback 8.83215 -0.862637 -7.67136
upperback -1.0215 -1.97682 0.118802
thorax -5.78698 -0.722579 4.71154
lowerneck -13.6657 1.44254 -3.76009
upperneck 16.2271 2.08772 3.76362
head 7.13717 1.11642 2.05386
rclavicle -2.28602e-015 -1.98785e-014
rhumerus -60.7098 -0.740658 -68.3439
rradius 41.699
rwrist -6.5373
rhand -11.828 -37.2471
rfingers 7.12502
rthumb 14.2227 -66.7401
lclavicle -2.28602e-015 -1.98785e-014
lhumerus -69.9764 9.19623 71.8763
lradius 58.1323
lwrist 11.3006
lhand -18.5714 -17.3163
lfingers 7.12502
lthumb 7.71882 12.5228
rfemur -14.9848 -9.43582 9.89287
rtibia 14.906
rfoot 14.4108 -8.63455
rtoes 19.1747
lfemur 3.64064 0.772407 -17.3907
ltibia 57.3733
lfoot 15.0912 -10.093
ltoes -28.1814
114
root 0.685072 20.5743 -21.4168 5.35805 7.93704 10.9637
lowerback 8.56195 -0.814181 -8.38499
upperback -0.87155 -1.97793 -0.285534
thorax -5.46848 -0.725334 4.6734
lowerneck -13.1598 1.69312 -3.49033
upperneck 16.7253 2.39661 3.52159
head 7.20458 1.25397 1.96141
rclavicle 5.66536e-015 -2.8625e-014
rhumerus -61.315 -0.849437 -67.9019
rradius 41.1185
rwrist -5.95242
rhand -12.49 -36.898
rfingers 7.12502
rthumb 13.5848 -66.4348
lclavicle 5.66536e-015 -2.8625e-014
lhumerus -70.3283 8.60848 72.0811
lradius 57.9639
lwrist 11.9167
lhand -17.6607 -17.0268
lfingers 7.12502
lthumb 8.59776 12.7781
rfemur -15.3606 -9.43775 8.55736
rtibia 14.371
rfoot 15.5482 -8.9724
rtoes 18.7264
lfemur 3.59681 0.283596 -18.6189
ltibia 60.7584
lfoot 15.2136 -11.0337
ltoes -27.7507
115
root 0.634609 20.2671 -21.0805 4.19406 8.15448 10.5218
lowerback 8.54894 -0.7353 -7.97779
upperback -0.46085 -1.80261 -0.187496
thorax -5.05672 -0.679093 4.51955
lowerneck -13.2036 1.60801 -3.43144
upperneck 17.2601 2.31766 3.24257
head 7.39479 1.19137 1.8627
rclavicle -2.87244e-014 3.49861e-014
rhumerus -61.8542 -0.753518 -67.7222
rradius 40.8645
rwrist -5.30892
rhand -12.9499 -37.002
rfingers 7.12502
rthumb 13.1415 -66.5679
lclavicle -2.87244e-014 3.49861e-014
lhumerus -70.6343 8.11738 72.3359
lradius 57.8109
lwrist 11.3761
lhand -17.1662 -16.9493
lfingers 7.12502
lthumb 9.07498 12.8355
rfemur -14.9368 -8.50292 9.10313
rtibia 14.5041
rfoot 16.6919 -9.98612
rtoes 20.3268
lfemur 4.2653 0.0427061 -17.707
ltibia 63.9471
lfoot 15.2984 -12.1968
ltoes -27.4128
116
root 0.615583 19.9263 -20.7598 3.63566 8.40654 11.3889
lowerback 8.35027 -0.657326 -8.36819
upperback -0.258897 -1.72719 -0.580323
thorax -4.74336 -0.655792 4.30688
lowerneck -12.8284 1.19265 -4.54619
upperneck 16.6421 1.76154 4.38214
head 7.12309 0.960529 2.34976
rclavicle 9.83984e-015 3.73715e-014
rhumerus -62.4616 -0.34813 -67.9371
rradius 40.8138
rwrist -5.24515
rhand -13.0377 -36.9122
rfingers 7.12502
rthumb 13.0569 -66.4835
lclavicle 9.83984e-015 3.73715e-014
lhumerus -70.9048 7.66087 72.533
lradius 57.7736
lwrist 11.4891
lhand -16.9197 -17.1945
lfingers 7.12502
lthumb 9.31283 12.5798
rfemur -15.0789 -9.07278 8.03091
rtibia 15.6814
rfoot 18.9214 -10.2709
rtoes 23.0842
lfemur 4.3044 -0.293441 -18.7144
ltibia 67.2767
lfoot 15.5409 -12.4412
ltoes -26.2062
117
root 0.598806 19.555 -20.4421 3.4305 8.71952 13.5674
lowerback 8.23275 -0.524139 -10.0943
upperback -0.255583 -1.73928 -1.30775
thorax -4.65217 -0.631875 4.50306
lowerneck -12.6611 0.966742 -5.13619
upperneck 16.8666 1.4439 5.0228
head 7.17009 0.827006 2.62916
rclavicle -9.74045e-015 1.82882e-014
rhumerus -63.2208 0.415397 -68.3989
rradius 40.9508
rwrist -5.65078
rhand -12.8412 -36.444
rfingers 7.12502
rthumb 13.2463 -66.0031
lclavicle -9.74045e-015 1.82882e-014
lhumerus -71.3241 7.29057 72.6287
lradius 57.803
lwrist 11.5649
lhand -16.3581 -17.6621
lfingers 7.12502
lthumb 9.85467 12.0873
rfemur -15.4344 -10.2685 5.33846
rtibia 17.6634
rfoot 19.6337 -9.79222
rtoes 27.8286
lfemur 3.99438 -0.579506 -21.2617
ltibia 70.7276
lfoot 15.7165 -11.8078
ltoes -24.9037
118
root 0.541585 19.0961 -20.1067 1.73835 8.97086 12.2794
lowerback 8.86955 -0.308001 -9.02697
upperback 0.0144532 -1.38583 -0.965441
thorax -4.79005 -0.481284 4.23879
lowerneck -12.5191 0.779308 -5.60298
upperneck 17.4422 1.18523 5.4426
head 7.3391 0.707681 2.82992
rclavicle 3.78188e-014 3.33958e-014
rhumerus -63.906 1.31094 -68.9423
rradius 41.209
rwrist -6.07043
rhand -12.5212 -36.247
rfingers 7.12502
rthumb 13.5547 -65.7858
lclavicle 3.78188e-014 3.33958e-014
lhumerus -71.8169 7.07477 72.7546
lradius 58.0481
lwrist 11.6533
lhand -15.9522 -17.826
lfingers 7.12502
lthumb 10.2463 11.9045
rfemur -15.122 -10.0527 7.16233
rtibia 22.3102
rfoot 8.45618 -8.0097
rtoes -3.18559
lfemur 4.8071 -0.117143 -18.9901
ltibia 73.9194
lfoot 15.4917 -12.4022
ltoes -24.331
119
root 0.506247 18.6304 -19.8098 0.99586 9.28106 12.9402
lowerback 9.24128 -0.103895 -9.56587
upperback 0.0669959 -1.22262 -1.22126
thorax -4.96354 -0.384088 4.25641
lowerneck -12.4647 0.563403 -5.67237
upperneck 18.2087 0.891862 5.40051
head 7.59801 0.555034 2.81433
rclavicle -1.10822e-014 -7.15625e-015
rhumerus -64.3411 1.92004 -69.5033
rradius 41.5257
rwrist -6.04201
rhand -11.9886 -36.074
rfingers 7.12502
rthumb 14.068 -65.5778
lclavicle -1.10822e-014 -7.15625e-015
lhumerus -72.0373 7.32345 72.6898
lradius 58.0594
lwrist 11.0484
lhand -15.9023 -17.6826
lfingers 7.12502
lthumb 10.2944 12.0454
rfemur -16.3447 -9.99029 6.78679
rtibia 30.7623
rfoot 1.43972 -8.94946
rtoes 7.81656
lfemur 4.48927 0.00999202 -19.4339
ltibia 77.3924
lfoot 14.4378 -12.2616
ltoes -26.9059
120
root 0.470311 18.1422 -19.5411 -0.0900305 9.4829 12.8656
lowerback 10.0761 0.131936 -9.30005
upperback 0.170361 -0.978827 -1.38301
thorax -5.36582 -0.257245 3.91646
lowerneck -11.6803 0.381769 -5.31677
upperneck 18.0653 0.615992 4.98655
head 7.4321 0.402343 2.58033
rclavicle 2.41523e-014 4.13472e-014
rhumerus -64.3913 1.7793 -69.9492
rradius 41.5136
rwrist -5.20845
rhand -11.4942 -35.6379
rfingers 7.12502
rthumb 14.5444 -65.1081
lclavicle 2.41523e-014 4.13472e-014
lhumerus -72.1348 8.03737 72.4052
lradius 57.9126
lwrist 10.1885
lhand -15.8234 -17.6718
lfingers 7.12502
lthumb 10.3705 12.0524
rfemur -16.6869 -6.92773 7.22377
rtibia 35.9625
rfoot -6.38152 -11.4311
rtoes 9.91068
lfemur 4.26625 0.153409 -19.0645
ltibia 80.5158
lfoot 14.4772 -11.432
ltoes -26.1905
121
root 0.435447 17.6613 -19.2956 -1.8591 9.56981 11.8342
lowerback 11.6883 0.371245 -8.0944
upperback 0.377658 -0.668183 -1.30578
thorax -6.10324 -0.111672 3.29321
lowerneck -10.445 0.241711 -5.18208
upperneck 17.4001 0.357867 4.97203
head 7.01129 0.277129 2.50725
rclavicle 3.15571e-015 6.36111e-015
rhumerus -63.5358 0.902325 -70.1914
rradius 40.3364
rwrist -3.61685
rhand -11.7324 -34.8165
rfingers 7.12502
rthumb 14.3149 -64.303
lclavicle 3.15571e-015 6.36111e-015
lhumerus -71.7389 9.61092 71.6203
lradius 57.0181
lwrist 9.37291
lhand -15.1952 -18.16
lfingers 7.12502
lthumb 10.9765 11.533
rfemur -15.6479 -6.03162 8.97379
rtibia 39.1276
rfoot -11.6592 -12.9198
rtoes 6.42054
lfemur 4.52746 0.362757 -17.627
ltibia 83.1398
lfoot 13.5383 -11.5431
ltoes -29.0431
